<?xml version="1.0" encoding="utf-8"?>
<!-- Generator: Adobe Illustrator 25.2.1, SVG Export Plug-In . SVG Version: 6.00 Build 0)  -->
<svg version="1.1" id="Layer_1" xmlns="http://www.w3.org/2000/svg" xmlns:xlink="http://www.w3.org/1999/xlink" x="0px" y="0px"
	 viewBox="0 0 48 30" style="enable-background:new 0 0 48 30;" xml:space="preserve">
<style type="text/css">
	.st0{fill:#292751;}
	.st1{fill:none;stroke:#FFFFFF;stroke-width:0.1409;stroke-miterlimit:10;}
	.st2{fill:#FFFFFF;}
	.st3{fill:#67BDFF;}
	.st4{fill:#1473FF;}
</style>
<desc>Created with Sketch.</desc>
<path id="XMLID_3_" class="st0" d="M44.3,0h0.5c0.1,0,0.3,0,0.4,0c0.2,0,0.5,0,0.8,0.1c0.2,0,0.4,0.1,0.6,0.2
	c0.2,0.1,0.3,0.2,0.5,0.4c0.1,0.1,0.3,0.3,0.4,0.5c0.1,0.2,0.2,0.4,0.2,0.6c0,0.3,0.1,0.5,0.1,0.8c0,0.1,0,0.3,0,0.4
	c0,0.2,0,0.3,0,0.5v22.9c0,0.2,0,0.3,0,0.5c0,0.1,0,0.3,0,0.4c0,0.2,0,0.5-0.1,0.8c0,0.2-0.1,0.4-0.2,0.6c-0.1,0.2-0.2,0.3-0.4,0.5
	c-0.1,0.1-0.3,0.3-0.5,0.4s-0.4,0.2-0.6,0.2c-0.3,0-0.6,0.1-0.8,0.1c-0.1,0-0.3,0-0.4,0c-0.2,0-0.3,0-0.5,0H3.7l0,0
	c-0.2,0-0.3,0-0.5,0c-0.1,0-0.3,0-0.4,0c-0.2,0-0.5,0-0.8-0.1c-0.2,0-0.4-0.1-0.6-0.2s-0.3-0.2-0.5-0.4c-0.1-0.1-0.3-0.3-0.4-0.5
	s-0.2-0.4-0.2-0.6c0-0.3-0.1-0.5-0.1-0.8c0-0.1,0-0.3,0-0.4v-0.4v-0.1v-23V3.3V2.9c0-0.1,0-0.3,0-0.4c0-0.2,0-0.5,0.1-0.8
	c0-0.2,0.1-0.4,0.2-0.6s0.2-0.3,0.4-0.5c0.2-0.1,0.3-0.3,0.5-0.3C1.6,0.2,1.8,0.1,2,0.1C2.3,0.1,2.5,0,2.8,0c0.1,0,0.3,0,0.4,0h0.5
	L44.3,0"/>
<g>
	<polygon class="st1" points="29.5,20.7 18.2,20.7 18.2,15.1 29.5,9.4 	"/>
	<rect x="27.2" y="18.4" class="st2" width="4.5" height="4.5"/>
	<path class="st3" d="M29.5,12L29.5,12c-1.5,0-2.5-1.2-2.5-2.5l0,0c0-1.5,1.2-2.5,2.5-2.5l0,0C31,7.1,32,8.2,32,9.5l0,0
		C32,10.9,30.8,12,29.5,12z"/>
	<rect x="16" y="12.9" class="st4" width="4.5" height="4.5"/>
</g>
</svg>
