<?xml version="1.0" encoding="utf-8"?>
<!-- Generator: Adobe Illustrator 25.2.1, SVG Export Plug-In . SVG Version: 6.00 Build 0)  -->
<svg version="1.1" id="Layer_1" xmlns="http://www.w3.org/2000/svg" xmlns:xlink="http://www.w3.org/1999/xlink" x="0px" y="0px"
	 viewBox="0 0 96 36" style="enable-background:new 0 0 96 36;" xml:space="preserve">
<style type="text/css">
	.st0{fill-rule:evenodd;clip-rule:evenodd;fill:#292751;}
	.st1{fill:#FFFFFF;}
</style>
<desc>Created with Sketch.</desc>
<g id="CONTAINER-COLOR">
	<rect id="Rectangle-13" class="st0" width="96" height="36"/>
</g>
<g>
	<path class="st1" d="M35.1,17.8v6.3h-1.6v-2c-0.5,1.3-2,2.2-3.7,2.2c-3,0-5.8-2.1-5.8-6.2c0-4.1,2.9-6.2,5.9-6.2
		c2.8,0,5,1.7,5.3,4.1h-1.9c-0.2-1.5-1.6-2.5-3.4-2.5c-2.4,0-4.1,1.6-4.1,4.6s1.7,4.6,4.1,4.6c1.8,0,3.5-1.1,3.5-2.7
		c0-0.5-0.3-0.8-0.8-0.8H30v-1.4H35.1z"/>
	<path class="st1" d="M37.5,11.8h1.7v12.3h-1.7V11.8z"/>
	<path class="st1" d="M49.4,24.1h-1.7v-1.5c-0.5,1.1-1.5,1.7-2.8,1.7c-2,0-3.2-1.4-3.2-3.5v-5.3h1.7v5c0,1.4,0.8,2.3,2,2.3
		c1.4,0,2.3-1.1,2.3-2.6v-4.7h1.7V24.1z"/>
	<path class="st1" d="M51.1,15.4h1.7l1.8,6.5l2-6.5h1.6l1.9,6.5l1.8-6.5h1.7l-2.7,8.7h-1.6l-2-6.5l-2,6.5h-1.6L51.1,15.4z"/>
	<path class="st1" d="M70.3,18.9c0,0,0-0.2,0-0.5c0-1.1-0.8-1.8-2.1-1.8c-1.2,0-1.8,0.8-1.9,1.6h-1.6c0.1-1.7,1.4-3,3.5-3
		c2.2,0,3.8,1.3,3.8,3.2v5.6h-1.7v-1.4c-0.4,0.9-1.8,1.6-3.1,1.6c-1.8,0-2.9-1.1-2.9-2.6c0-1.7,1.3-2.7,3.4-2.7H70.3z M70.3,20.3
		v-0.2h-2.5c-1.1,0-1.9,0.6-1.9,1.5c0,0.8,0.7,1.3,1.6,1.3C69.2,22.9,70.3,21.9,70.3,20.3z"/>
</g>
</svg>
