<?xml version="1.0" encoding="UTF-8"?>
<svg width="96px" height="36px" viewBox="0 0 96 36" version="1.1" xmlns="http://www.w3.org/2000/svg" xmlns:xlink="http://www.w3.org/1999/xlink">
    <!-- Generator: Sketch 59.1 (86144) - https://sketch.com -->
    <title>Gluwa button-white</title>
    <desc>Created with Sketch.</desc>
    <g id="Buttons" stroke="none" stroke-width="1" fill="none" fill-rule="evenodd">
        <g id="Gluwa-button-white">
            <g>
                <g id="CONTAINER-COLOR" fill="#FFFFFF">
                    <rect id="Rectangle-13" x="0" y="0" width="96" height="36"></rect>
                </g>
                <g id="Gluwa-logo-wordmark-black" transform="translate(18.000000, 12.000000)" fill="#000000">
                    <g id="Gluwa-logo-wordmark-white">
                        <path d="M10.925065,2.13874723 L9.41202155,3.63221258 C8.45312827,2.61518288 7.33652748,2.10627198 6.06221918,2.1054799 C4.94996621,2.1054799 4.01953143,2.47577693 3.27091483,3.21637099 C2.53573286,3.91565637 2.12707397,4.89191456 2.14443262,5.9074601 C2.12659416,6.9554927 2.55015527,7.96257971 3.31123104,8.68171753 C4.08988716,9.44211357 5.05075673,9.82270763 6.19383973,9.82349971 C6.93376068,9.82349971 7.56221918,9.6654799 8.07091483,9.34825218 C8.57961048,9.03102446 8.9922587,8.54508387 9.30411641,7.87854921 L6.03494645,7.87854921 L6.03494645,5.85874723 L11.7159741,5.85874723 L11.7302038,6.33399476 C11.7305739,7.324272 11.465182,8.29643029 10.9618239,9.14864822 C10.494302,9.9924049 9.8075695,10.6936351 8.97447214,11.1779552 C8.16261444,11.646866 7.21044052,11.8813215 6.1179504,11.8813215 C5.02472228,11.9009646 3.94490637,11.6378419 2.98277254,11.1173611 C2.06620837,10.6099341 1.31055891,9.85443514 0.802140127,8.93716307 C0.271594118,8.00811848 -0.00490628701,6.95525438 0.000559099105,5.88488585 C-0.0196831836,4.44077679 0.510394327,3.04327498 1.48277254,1.97716307 C2.65036147,0.659143271 4.17249586,0.000133370169 6.0491757,0.000133370169 C6.99528107,-0.00569199776 7.93287621,0.179369898 8.8060927,0.544291786 C9.52783183,0.855578915 10.2341559,1.38706406 10.925065,2.13874723 Z" id="Path" fill-rule="nonzero"></path>
                        <polygon id="Path" fill-rule="nonzero" points="13.6713101 0.284093766 15.8187409 0.284093766 15.8187409 9.5514205 22.0902824 9.5514205 22.0902824 11.6056779 13.6713101 11.6056779"></polygon>
                        <polygon id="Path" fill-rule="nonzero" points="36.4985828 0.284093766 38.608069 0.284093766 40.2408753 7.50785614 42.2566856 0.284093766 44.0448279 0.284093766 46.0879109 7.50785614 47.7041164 0.284093766 49.8183457 0.284093766 47.2760532 11.5997373 45.2187409 11.5997373 43.1377132 4.28448981 41.0981876 11.5997373 39.0586619 11.5997373"></polygon>
                        <path d="M53.4503615,0.284093766 L55.6298081,0.284093766 L59.9721006,11.5997373 L57.7381085,11.5997373 L56.8558951,9.2674601 L52.2444326,9.2674601 L51.3266461,11.5985492 L49.0950255,11.5985492 L53.4503615,0.284093766 Z M54.5531283,3.28647 L53.038899,7.16805416 L56.0578714,7.16805416 L54.5531283,3.28647 Z" id="Shape" fill-rule="nonzero"></path>
                        <path d="M32.1230887,0.284093766 L32.1230887,5.94072743 C32.1230887,7.94627198 30.668148,9.57637099 28.87882,9.57637099 C27.0894919,9.57637099 25.635737,7.94270763 25.635737,5.94072743 L25.635737,0.284093766 L23.4752627,0.284093766 L23.4752627,5.94072743 C23.4752627,9.13914327 25.8989781,11.7399354 28.87882,11.7399354 C31.8586619,11.7399354 34.2847488,9.13557891 34.2847488,5.94072743 L34.2847488,0.284093766 L32.1230887,0.284093766 Z" id="Path" fill-rule="nonzero"></path>
                    </g>
                </g>
            </g>
        </g>
    </g>
</svg>