<?xml version="1.0" encoding="UTF-8"?>
<svg width="96px" height="36px" viewBox="0 0 96 36" version="1.1" xmlns="http://www.w3.org/2000/svg" xmlns:xlink="http://www.w3.org/1999/xlink">
    <!-- Generator: Sketch 59.1 (86144) - https://sketch.com -->
    <title>Gluwa button-white outlined</title>
    <desc>Created with Sketch.</desc>
    <defs>
        <path d="M94,2.22044605e-16 L96,2 L96,34 L94,36 L2,36 L-2.22044605e-16,34 L2.22044605e-16,2 L2,-2.22044605e-16 L94,2.22044605e-16 Z" id="path-1"></path>
    </defs>
    <g id="Buttons" stroke="none" stroke-width="1" fill="none" fill-rule="evenodd">
        <g id="Gluwa-button-white-outlined">
            <g>
                <mask id="mask-2" fill="white">
                    <use xlink:href="#path-1"></use>
                </mask>
                <path stroke="#000000" d="M93.7928932,0.5 L2.20710678,0.5 L0.5,2.20710678 L0.5,33.7928932 L2.20710678,35.5 L93.7928932,35.5 L95.5,33.7928932 L95.5,2.20710678 L93.7928932,0.5 Z"></path>
                <g id="Gluwa-logo-wordmark-black" mask="url(#mask-2)">
                    <g transform="translate(20.000000, 13.000000)" id="Gluwa-logo-wordmark-white">
                        <g>
                            <path d="M10.0146429,1.9605183 L8.62768642,3.3295282 C7.74870091,2.39725097 6.72515019,1.93074932 5.55703425,1.93002325 C4.53746903,1.93002325 3.68457048,2.26946219 2.99833859,2.94834008 C2.32442179,3.58935168 1.9498178,4.48425502 1.9657299,5.41517176 C1.94937798,6.37586831 2.33764233,7.2990314 3.03529512,7.95824107 C3.74906323,8.65527077 4.62986033,9.00414866 5.67768642,9.00487473 C6.35594729,9.00487473 6.93203425,8.86002325 7.39833859,8.56923117 C7.86464294,8.27843909 8.24290381,7.83299354 8.52877338,7.22200344 L5.53203425,7.22200344 L5.53203425,5.3705183 L10.7396429,5.3705183 L10.7526868,5.80616186 C10.7530261,6.713916 10.5097501,7.6050611 10.0483386,8.38626087 C9.61977683,9.15970449 8.99027204,9.80249881 8.22659946,10.2464589 C7.48239657,10.6762939 6.60957048,10.8912114 5.6081212,10.8912114 C4.60599542,10.9092176 3.61616417,10.6680217 2.73420816,10.1909143 C1.89402434,9.7257729 1.20134567,9.03323221 0.735295116,8.19239948 C0.248961275,7.34077528 -0.00449742976,6.37564985 0.000512507513,5.39447869 C-0.0180429183,4.07071206 0.467861467,2.78966874 1.35920816,1.81239948 C2.42949801,0.604214665 3.82478787,0.000122255989 5.54507772,0.000122255989 C6.41234098,-0.00521766461 7.27180319,0.164422407 8.07225164,0.498934137 C8.73384584,0.784280672 9.38130961,1.27147539 10.0146429,1.9605183 Z" id="Path" fill="#000000" fill-rule="nonzero"></path>
                            <polygon id="Path" fill="#000000" fill-rule="nonzero" points="12.5320342 0.260419286 14.5005125 0.260419286 14.5005125 8.75546879 20.2494256 8.75546879 20.2494256 10.6385381 12.5320342 10.6385381"></polygon>
                            <polygon id="Path" fill="#000000" fill-rule="nonzero" points="33.4570342 0.260419286 35.3907299 0.260419286 36.887469 6.88220146 38.7352951 0.260419286 40.3744256 0.260419286 42.2472516 6.88220146 43.7287734 0.260419286 45.6668169 0.260419286 43.3363821 10.6330926 41.4505125 10.6330926 39.5429038 3.92744899 37.6733386 10.6330926 35.8037734 10.6330926"></polygon>
                            <path d="M48.9961647,0.260419286 L50.9939908,0.260419286 L54.9744256,10.6330926 L52.9265995,10.6330926 L52.1179038,8.49517176 L47.8907299,8.49517176 L47.0494256,10.6320034 L45.0037734,10.6320034 L48.9961647,0.260419286 Z M50.0070342,3.0125975 L48.6189908,6.57071632 L51.3863821,6.57071632 L50.0070342,3.0125975 Z" id="Shape" fill="#000000" fill-rule="nonzero"></path>
                            <path d="M29.4461647,0.260419286 L29.4461647,5.44566681 C29.4461647,7.28408265 28.112469,8.77834008 26.4722516,8.77834008 C24.8320342,8.77834008 23.4994256,7.28081533 23.4994256,5.44566681 L23.4994256,0.260419286 L21.5189908,0.260419286 L21.5189908,5.44566681 C21.5189908,8.377548 23.7407299,10.7616074 26.4722516,10.7616074 C29.2037734,10.7616074 31.4276864,8.37428067 31.4276864,5.44566681 L31.4276864,0.260419286 L29.4461647,0.260419286 Z" id="Path" fill="#000000" fill-rule="nonzero"></path>
                        </g>
                    </g>
                </g>
            </g>
        </g>
    </g>
</svg>