<?xml version="1.0" encoding="UTF-8"?>
<svg width="48px" height="30px" viewBox="0 0 48 30" version="1.1" xmlns="http://www.w3.org/2000/svg" xmlns:xlink="http://www.w3.org/1999/xlink">
    <!-- Generator: Sketch 59.1 (86144) - https://sketch.com -->
    <title>Gluwa mark-retro</title>
    <desc>Created with Sketch.</desc>
    <g id="Mark" stroke="none" stroke-width="1" fill="none" fill-rule="evenodd">
        <g id="Gluwa-mark-retro">
            <g>
                <path d="M44.309421,0.1596 L44.810868,0.16056 C44.946708,0.16152 45.082551,0.16299 45.219144,0.16671 C45.456747,0.17313 45.734691,0.186 45.993771,0.23244 C46.218981,0.273 46.407858,0.33468 46.589121,0.42696 C46.768071,0.51789 46.932024,0.63705 47.075178,0.78 C47.218878,0.92391 47.338191,1.08813 47.430321,1.26906 C47.522088,1.44891 47.583378,1.63689 47.623698,1.86375 C47.670018,2.12001 47.682828,2.39871 47.689341,2.63778 C47.692998,2.77272 47.694798,2.90766 47.695461,3.04581 C47.696721,3.21288 47.696721,3.37986 47.696721,3.54726 L47.696721,26.4426 C47.696721,26.61 47.696721,26.77668 47.695431,26.94732 C47.694798,27.08223 47.693001,27.21717 47.689311,27.35235 C47.682828,27.59106 47.670021,27.86961 47.623131,28.1289 C47.583378,28.35264 47.522121,28.54065 47.429844,28.7214 C47.337981,28.90188 47.218851,29.06592 47.075778,29.20893 C46.931811,29.35293 46.768398,29.47173 46.587321,29.5635 C46.407411,29.65533 46.218858,29.716953 45.995868,29.75709 C45.731541,29.80419 45.441951,29.81715 45.223851,29.82306 C45.086631,29.82615 44.950071,29.828007 44.810184,29.82867 C44.643471,29.8299301 44.476164,29.8299301 44.309424,29.8299301 L3.546954,29.8299301 C3.544734,29.8299301 3.542574,29.8299301 3.540324,29.8299301 C3.375504,29.8299301 3.210354,29.8299301 3.042534,29.82864 C2.905704,29.828007 2.769174,29.82618 2.637174,29.82318 C2.414094,29.81715 2.124324,29.80422 1.862154,29.75739 C1.637247,29.71695 1.448694,29.65533 1.266414,29.5623 C1.087047,29.47134 0.923754,29.35266 0.779724,29.20839 C0.636804,29.06571 0.518034,28.90218 0.426204,28.72143 C0.334284,28.54086 0.272784,28.35228 0.232347,28.12587 C0.185604,27.86709 0.172764,27.58965 0.166347,27.35256 C0.162684,27.21681 0.161154,27.08109 0.160284,26.94615 L0.159624,26.54778 L0.159624,26.4426 L0.159624,3.54726 L0.159624,3.44208 L0.160254,3.04455 C0.161154,2.9088 0.162684,2.77308 0.166347,2.63745 C0.172764,2.40012 0.185604,2.12256 0.232734,1.86162 C0.272814,1.63725 0.334284,1.44867 0.426684,1.2672 C0.517794,1.08783 0.636774,0.92409 0.780447,0.78045 C0.923547,0.63729 1.087374,0.51828 1.267884,0.42648 C1.448214,0.33465 1.637124,0.273 1.862034,0.23253 C2.121174,0.18597 2.399304,0.17313 2.637504,0.16668 C2.773284,0.16299 2.909064,0.16152 3.043824,0.16059 L3.546954,0.1596 L44.309421,0.1596" id="XMLID_3_" fill="#0076CF" fill-rule="nonzero"></path>
                <g id="Gluwa-logo-symbol-white" transform="translate(12.300000, 8.100000)" fill="#FFFFFF">
                    <g id="Path">
                        <path d="M10.1688688,3.5260177 L13.4355876,3.5260177 C13.4607438,3.26707965 13.4906918,3.01681416 13.5254313,2.78265487 L11.0098063,2.78265487 C10.7406744,3.01887906 10.4603619,3.26666667 10.1688688,3.5260177 Z" fill-rule="nonzero"></path>
                        <path d="M12.5227751,1.4520354 L11.6722543,2.19539823 L13.6236605,2.19539823 C13.6727751,1.92654867 13.7254834,1.67628319 13.7769938,1.4520354 L12.5227751,1.4520354 Z" fill-rule="nonzero"></path>
                        <path d="M14.1890772,-5.68434189e-14 C14.1890772,-5.68434189e-14 13.8105355,0.328318584 13.1780355,0.882123894 L13.9159522,0.882123894 C14.0668897,0.31840708 14.1890772,-5.68434189e-14 14.1890772,-5.68434189e-14 Z" fill-rule="nonzero"></path>
                        <path d="M8.75412926,4.78725664 C8.75412926,4.80831858 8.75412926,4.82938053 8.75412926,4.85044248 L13.3613168,4.85044248 C13.3613168,4.59646018 13.3709001,4.34619469 13.3852751,4.10707965 L9.51959801,4.10707965 L8.75412926,4.78725664 Z" fill-rule="nonzero"></path>
                        <path d="M8.80923342,6.17610619 L13.4188168,6.17610619 C13.3948584,5.92831858 13.3804834,5.68053097 13.3709001,5.43274336 L8.76371259,5.43274336 C8.77329592,5.68176991 8.78886884,5.93079646 8.80923342,6.17610619 Z" fill-rule="nonzero"></path>
                        <path d="M9.40100426,8.82619469 L13.9926188,8.82619469 C13.903973,8.57840708 13.8237126,8.33061947 13.7530355,8.08283186 L9.16022301,8.08283186 C9.2312994,8.33474926 9.31155981,8.58253687 9.40100426,8.82619469 Z" fill-rule="nonzero"></path>
                        <path d="M12.3263168,12.800708 L16.6939209,12.800708 C16.4230346,12.5681721 16.1650712,12.3199888 15.9212647,12.0573451 L11.4781918,12.0573451 C11.7470638,12.3215406 12.0302281,12.5697279 12.3263168,12.800708 L12.3263168,12.800708 Z" fill-rule="nonzero"></path>
                        <path d="M10.942723,11.4750442 L15.4301188,11.4750442 C15.2396501,11.2272566 15.0707438,10.979469 14.9090251,10.7316814 L10.3761084,10.7316814 C10.5520573,10.9897191 10.7411979,11.2378597 10.942723,11.4750442 Z" fill-rule="nonzero"></path>
                        <path d="M9.01767092,7.50053097 L13.6188688,7.50053097 C13.5673584,7.25274336 13.5254313,7.00495575 13.4894938,6.75716814 L8.88110842,6.75716814 C8.91864315,7.00908555 8.96416398,7.25687316 9.01767092,7.50053097 Z" fill-rule="nonzero"></path>
                        <path d="M10.0155355,10.1506195 L14.5748063,10.1506195 C14.4430355,9.90283186 14.3232438,9.65504425 14.2154313,9.40725664 L9.63699384,9.40725664 C9.75199384,9.66371681 9.87777509,9.91150442 10.0155355,10.1506195 Z" fill-rule="nonzero"></path>
                        <path d="M13.3445459,13.5044248 L13.9602751,13.8761062 L18.1637647,13.8761062 C17.8990251,13.7138053 17.6510563,13.5453097 17.4138688,13.3718584 L13.1480876,13.3718584 C13.213973,13.420177 13.2774626,13.4647788 13.3445459,13.5044248 Z" fill-rule="nonzero"></path>
                        <path d="M15.1641813,3.28690265 L18.1865251,3.28690265 C18.2032959,3.14566372 18.2212647,3.00690265 18.2392334,2.87185841 L15.6373584,2.87185841 L15.1641813,3.28690265 Z" fill-rule="nonzero"></path>
                        <path d="M15.8062647,11.2371681 L19.9834001,11.2371681 C19.8827751,11.099646 19.7845459,10.9621239 19.6947022,10.8221239 L15.5019938,10.8221239 C15.5942334,10.9621239 15.6984522,11.099646 15.8062647,11.2371681 Z" fill-rule="nonzero"></path>
                        <path d="M14.3735563,8.58707965 L18.6321501,8.58707965 C18.5866293,8.44831858 18.547098,8.31079646 18.5123584,8.1720354 L14.2465772,8.1720354 C14.2873063,8.31079646 14.3268376,8.44955752 14.3735563,8.58707965 Z" fill-rule="nonzero"></path>
                        <path d="M13.8093376,4.49238938 C13.8093376,4.5320354 13.8093376,4.57292035 13.8093376,4.61628319 L18.0978793,4.61628319 C18.0978793,4.47628319 18.1050668,4.33628319 18.1122543,4.2 L14.1411605,4.2 L13.8093376,4.49238938 Z" fill-rule="nonzero"></path>
                        <path d="M14.0249626,7.26265487 L18.3015251,7.26265487 C18.2751709,7.12389381 18.2500147,6.98513274 18.2296501,6.84637168 L13.9494938,6.84637168 C13.9726536,6.98513274 13.9978098,7.12389381 14.0249626,7.26265487 Z" fill-rule="nonzero"></path>
                        <path d="M17.138348,1.54619469 C16.9862126,1.67876106 16.8304834,1.81628319 16.6651709,1.96247788 L18.3925668,1.96247788 C18.4213168,1.81752212 18.4500668,1.67752212 18.4788168,1.54619469 L17.138348,1.54619469 Z" fill-rule="nonzero"></path>
                        <path d="M13.8404834,5.93699115 L18.1290251,5.93699115 C18.1194418,5.79699115 18.1110563,5.65946903 18.1050668,5.5219469 L13.8189209,5.5219469 C13.8249105,5.65946903 13.8404834,5.79823009 13.8404834,5.93699115 Z" fill-rule="nonzero"></path>
                        <path d="M18.9172543,2.84217094e-14 L18.1781397,0.64300885 L18.7100147,0.64300885 C18.8286084,0.227964602 18.9172543,2.84217094e-14 18.9172543,2.84217094e-14 Z" fill-rule="nonzero"></path>
                        <path d="M14.9461605,9.91150442 L19.1772022,9.91150442 C19.1089209,9.77274336 19.0454313,9.6339823 18.9843376,9.49522124 L14.7425147,9.49522124 C14.8072022,9.63522124 14.8730876,9.7739823 14.9461605,9.91150442 Z" fill-rule="nonzero"></path>
                        <path d="M18.3793897,13.5044248 L18.9951188,13.8761062 L22.8919418,13.8761062 C22.6751188,13.7435398 22.4690772,13.6060177 22.270223,13.4660177 L18.3290772,13.4660177 L18.3793897,13.5044248 Z" fill-rule="nonzero"></path>
                        <path d="M17.0748584,12.5628319 L21.1561605,12.5628319 C21.0112126,12.4265487 20.8746501,12.2877876 20.7416813,12.1465487 L16.6220459,12.1465487 C16.7669938,12.2877876 16.9131397,12.4265487 17.0748584,12.5628319 Z" fill-rule="nonzero"></path>
                        <path d="M9.15423342,-5.68434189e-14 C9.15423342,-5.68434189e-14 5.17715009,3.95469027 1.49954592,7.41132743 C-0.338058242,9.13964602 -0.219464492,10.8964602 0.445379258,12.1453097 C0.946108425,12.8973451 1.59777509,13.8884956 3.55996259,13.8884956 L13.1301188,13.8884956 C5.63475426,9.30070796 9.15423342,-5.68434189e-14 9.15423342,-5.68434189e-14 Z" fill-rule="nonzero"></path>
                    </g>
                </g>
            </g>
        </g>
    </g>
</svg>